<svg width="67" height="65" viewBox="0 0 67 65" fill="none" xmlns="http://www.w3.org/2000/svg">
<g filter="url(#filter0_d)">
<path fill-rule="evenodd" clip-rule="evenodd" d="M20.8399 0.975998C24.1145 0.825248 25.1586 0.791748 33.5001 0.791748C41.8416 0.791748 42.8857 0.82804 46.1575 0.975998C49.4293 1.12396 51.6627 1.646 53.6168 2.40254C55.6631 3.17583 57.5196 4.38462 59.055 5.94796C60.6183 7.48058 61.8243 9.33425 62.5948 11.3833C63.3542 13.3375 63.8734 15.5708 64.0242 18.8371C64.1749 22.1173 64.2084 23.1614 64.2084 31.5001C64.2084 39.8416 64.1721 40.8857 64.0242 44.1603C63.8762 47.4265 63.3542 49.6599 62.5948 51.614C61.8243 53.6634 60.6163 55.5201 59.055 57.055C57.5196 58.6183 55.6631 59.8243 53.6168 60.5948C51.6627 61.3542 49.4293 61.8734 46.1631 62.0242C42.8857 62.1749 41.8416 62.2084 33.5001 62.2084C25.1586 62.2084 24.1145 62.1721 20.8399 62.0242C17.5736 61.8762 15.3403 61.3542 13.3861 60.5948C11.3368 59.8242 9.48008 58.6162 7.94516 57.055C6.38289 55.5214 5.17392 53.6656 4.40254 51.6168C3.646 49.6627 3.12675 47.4293 2.976 44.1631C2.82525 40.8829 2.79175 39.8388 2.79175 31.5001C2.79175 23.1586 2.82804 22.1145 2.976 18.8427C3.12396 15.5708 3.646 13.3375 4.40254 11.3833C5.17506 9.33448 6.38495 7.47866 7.94796 5.94516C9.48069 4.38323 11.3356 3.17428 13.3833 2.40254C15.3375 1.646 17.5708 1.12675 20.8371 0.975998H20.8399ZM45.909 6.5035C42.6707 6.35554 41.6992 6.32483 33.5001 6.32483C25.301 6.32483 24.3295 6.35554 21.0911 6.5035C18.0957 6.64029 16.4709 7.14 15.3877 7.56154C13.9556 8.11987 12.9311 8.7815 11.8563 9.85629C10.8375 10.8475 10.0534 12.0541 9.56154 13.3877C9.14 14.4709 8.64029 16.0957 8.5035 19.0911C8.35554 22.3295 8.32483 23.301 8.32483 31.5001C8.32483 39.6992 8.35554 40.6707 8.5035 43.909C8.64029 46.9045 9.14 48.5292 9.56154 49.6124C10.0529 50.944 10.8373 52.1528 11.8563 53.1439C12.8473 54.1628 14.0561 54.9473 15.3877 55.4386C16.4709 55.8602 18.0957 56.3599 21.0911 56.4967C24.3295 56.6446 25.2982 56.6753 33.5001 56.6753C41.702 56.6753 42.6707 56.6446 45.909 56.4967C48.9045 56.3599 50.5292 55.8602 51.6124 55.4386C53.0445 54.8803 54.0691 54.2187 55.1439 53.1439C56.1628 52.1528 56.9473 50.944 57.4386 49.6124C57.8602 48.5292 58.3599 46.9045 58.4967 43.909C58.6446 40.6707 58.6753 39.6992 58.6753 31.5001C58.6753 23.301 58.6446 22.3295 58.4967 19.0911C58.3599 16.0957 57.8602 14.4709 57.4386 13.3877C56.8803 11.9556 56.2187 10.9311 55.1439 9.85629C54.1526 8.83753 52.946 8.05346 51.6124 7.56154C50.5292 7.14 48.9045 6.64029 45.909 6.5035ZM29.5778 40.9666C31.7683 41.8785 34.2074 42.0015 36.4786 41.3148C38.7498 40.6281 40.712 39.1741 42.0303 37.2013C43.3486 35.2285 43.9411 32.8593 43.7065 30.4982C43.472 28.1371 42.4251 25.9306 40.7445 24.2557C39.6731 23.185 38.3777 22.3652 36.9515 21.8553C35.5253 21.3453 34.0038 21.158 32.4965 21.3066C30.9891 21.4553 29.5335 21.9363 28.2344 22.7151C26.9354 23.4938 25.8251 24.5509 24.9836 25.8102C24.142 27.0696 23.5902 28.4998 23.3678 29.9981C23.1453 31.4963 23.2579 33.0251 23.6973 34.4746C24.1366 35.9241 24.8919 37.2582 25.9088 38.3808C26.9256 39.5033 28.1787 40.3865 29.5778 40.9666ZM22.339 20.339C23.8047 18.8733 25.5447 17.7107 27.4597 16.9174C29.3748 16.1242 31.4273 15.7159 33.5001 15.7159C35.5729 15.7159 37.6254 16.1242 39.5404 16.9174C41.4554 17.7106 43.1955 18.8733 44.6612 20.339C46.1269 21.8047 47.2895 23.5447 48.0827 25.4597C48.876 27.3748 49.2842 29.4273 49.2842 31.5001C49.2842 33.5729 48.876 35.6254 48.0827 37.5404C47.2895 39.4554 46.1269 41.1955 44.6612 42.6612C41.7011 45.6213 37.6863 47.2842 33.5001 47.2842C29.3139 47.2842 25.2991 45.6213 22.339 42.6612C19.3789 39.7011 17.7159 35.6863 17.7159 31.5001C17.7159 27.3139 19.3789 23.2991 22.339 20.339ZM52.7849 18.0666C53.1481 17.724 53.4389 17.3119 53.64 16.8549C53.8411 16.3979 53.9485 15.9052 53.9558 15.4059C53.9631 14.9067 53.8701 14.411 53.6824 13.9483C53.4947 13.4857 53.216 13.0653 52.863 12.7123C52.5099 12.3592 52.0896 12.0806 51.6269 11.8929C51.1642 11.7051 50.6686 11.6122 50.1693 11.6195C49.6701 11.6267 49.1773 11.7341 48.7203 11.9352C48.2633 12.1364 47.8513 12.4271 47.5087 12.7903C46.8423 13.4967 46.4775 14.435 46.4917 15.4059C46.5058 16.3769 46.8978 17.3041 47.5845 17.9908C48.2711 18.6774 49.1983 19.0694 50.1693 19.0836C51.1403 19.0977 52.0785 18.7329 52.7849 18.0666Z" fill="black"/>
</g>
<defs>
<filter id="filter0_d" x="-1.20825" y="0.791748" width="69.4167" height="69.4167" filterUnits="userSpaceOnUse" color-interpolation-filters="sRGB">
<feFlood flood-opacity="0" result="BackgroundImageFix"/>
<feColorMatrix in="SourceAlpha" type="matrix" values="0 0 0 0 0 0 0 0 0 0 0 0 0 0 0 0 0 0 127 0"/>
<feOffset dy="4"/>
<feGaussianBlur stdDeviation="2"/>
<feColorMatrix type="matrix" values="0 0 0 0 0 0 0 0 0 0 0 0 0 0 0 0 0 0 0.25 0"/>
<feBlend mode="normal" in2="BackgroundImageFix" result="effect1_dropShadow"/>
<feBlend mode="normal" in="SourceGraphic" in2="effect1_dropShadow" result="shape"/>
</filter>
</defs>
</svg>
