<svg width="156" height="28" viewBox="0 0 156 28" fill="none" xmlns="http://www.w3.org/2000/svg">
<path d="M14 0L17.5385 9.12972L27.3148 9.67376L19.7254 15.8603L22.229 25.3262L14 20.02L5.77101 25.3262L8.27464 15.8603L0.685208 9.67376L10.4615 9.12972L14 0Z" fill="black"/>
<path d="M46 0L49.5385 9.12972L59.3148 9.67376L51.7254 15.8603L54.229 25.3262L46 20.02L37.771 25.3262L40.2746 15.8603L32.6852 9.67376L42.4615 9.12972L46 0Z" fill="black"/>
<path d="M78 0L81.5385 9.12972L91.3148 9.67376L83.7254 15.8603L86.229 25.3262L78 20.02L69.771 25.3262L72.2746 15.8603L64.6852 9.67376L74.4615 9.12972L78 0Z" fill="black"/>
<path d="M110 0L113.538 9.12972L123.315 9.67376L115.725 15.8603L118.229 25.3262L110 20.02L101.771 25.3262L104.275 15.8603L96.6852 9.67376L106.462 9.12972L110 0Z" fill="black"/>
<path d="M142 0L145.538 9.12972L155.315 9.67376L147.725 15.8603L150.229 25.3262L142 20.02L133.771 25.3262L136.275 15.8603L128.685 9.67376L138.462 9.12972L142 0Z" fill="black"/>
</svg>
