<svg width="72" height="72" viewBox="0 0 72 72" fill="none" xmlns="http://www.w3.org/2000/svg">
<path d="M70.929 14.8112C68.424 15.9212 65.733 16.6712 62.904 17.0102C65.823 15.2636 68.0069 12.5146 69.048 9.27623C66.3056 10.9052 63.3041 12.0518 60.174 12.6662C58.0692 10.4188 55.2812 8.92921 52.243 8.42865C49.2048 7.9281 46.0863 8.44461 43.3717 9.89799C40.6572 11.3514 38.4984 13.6603 37.2305 16.4663C35.9626 19.2724 35.6566 22.4185 36.36 25.4162C30.8031 25.1372 25.3669 23.6929 20.4043 21.1769C15.4417 18.661 11.0636 15.1297 7.55403 10.8122C6.35403 12.8822 5.66404 15.2822 5.66404 17.8382C5.6627 20.1392 6.22933 22.405 7.31367 24.4344C8.39801 26.4639 9.96652 28.1943 11.88 29.4722C9.66086 29.4016 7.49065 28.802 5.55004 27.7232V27.9032C5.54981 31.1305 6.66613 34.2584 8.70958 36.7562C10.753 39.2541 13.5977 40.968 16.761 41.6072C14.7024 42.1644 12.544 42.2464 10.449 41.8472C11.3415 44.6241 13.08 47.0523 15.4211 48.792C17.7623 50.5317 20.5888 51.4958 23.505 51.5492C18.5545 55.4355 12.4407 57.5435 6.14704 57.5342C5.03218 57.5345 3.91826 57.4694 2.81104 57.3392C9.19946 61.4468 16.6361 63.6267 24.231 63.6182C49.941 63.6182 63.996 42.3242 63.996 23.8562C63.996 23.2562 63.981 22.6502 63.954 22.0502C66.6879 20.0732 69.0478 17.6249 70.923 14.8202L70.929 14.8112Z" fill="black"/>
</svg>
